<?xml version="1.0" standalone="no"?><!DOCTYPE svg PUBLIC "-//W3C//DTD SVG 1.1//EN" "http://www.w3.org/Graphics/SVG/1.1/DTD/svg11.dtd"><svg t="1583471087696" class="icon" viewBox="0 0 1024 1024" version="1.1" xmlns="http://www.w3.org/2000/svg" p-id="10764" xmlns:xlink="http://www.w3.org/1999/xlink" width="16" height="16"><defs><style type="text/css"></style></defs><path d="M512 0C230.4 0 0 230.4 0 512s230.4 512 512 512 512-230.4 512-512S793.6 0 512 0z m0 972.8c-253.44 0-460.8-207.36-460.8-460.8S258.56 51.2 512 51.2s460.8 207.36 460.8 460.8-207.36 460.8-460.8 460.8z" p-id="10765"></path><path d="M742.4 486.4h-204.8v-204.8c0-15.36-10.24-25.6-25.6-25.6s-25.6 10.24-25.6 25.6v204.8h-204.8c-15.36 0-25.6 10.24-25.6 25.6s10.24 25.6 25.6 25.6h204.8v204.8c0 15.36 10.24 25.6 25.6 25.6s25.6-10.24 25.6-25.6v-204.8h204.8c15.36 0 25.6-10.24 25.6-25.6s-10.24-25.6-25.6-25.6z" p-id="10766"></path></svg>