<?xml version="1.0" standalone="no"?><!DOCTYPE svg PUBLIC "-//W3C//DTD SVG 1.1//EN" "http://www.w3.org/Graphics/SVG/1.1/DTD/svg11.dtd"><svg t="1584673522283" class="icon" viewBox="0 0 1024 1024" version="1.1" xmlns="http://www.w3.org/2000/svg" p-id="24746" xmlns:xlink="http://www.w3.org/1999/xlink" width="16" height="16"><defs><style type="text/css"></style></defs><path d="M512 512m-512 0a512 512 0 1 0 1024 0 512 512 0 1 0-1024 0Z" p-id="24747"></path><path d="M344.786824 376.741647h-81.016471a22.588235 22.588235 0 0 0 0 45.176471h135.529412a22.588235 22.588235 0 0 0 22.588235-22.588236v-135.529411a22.588235 22.588235 0 0 0-45.176471 0v81.01647L279.792941 247.808a22.588235 22.588235 0 1 0-31.924706 31.924706l96.978824 96.978823zM647.258353 344.786824v-81.016471a22.588235 22.588235 0 1 0-45.176471 0v135.529412c0 12.498824 10.119529 22.588235 22.588236 22.588235h135.529411a22.588235 22.588235 0 1 0 0-45.176471h-81.01647l96.978823-96.948705a22.588235 22.588235 0 1 0-31.924706-31.924706l-96.978823 96.978823zM344.786824 647.258353h-81.016471a22.588235 22.588235 0 1 1 0-45.176471h135.529412a22.588235 22.588235 0 0 1 22.588235 22.588236v135.529411a22.588235 22.588235 0 1 1-45.176471 0v-81.01647l-96.948705 96.978823a22.588235 22.588235 0 1 1-31.924706-31.924706l96.978823-96.978823zM647.258353 679.213176v81.016471a22.588235 22.588235 0 1 1-45.176471 0v-135.529412a22.588235 22.588235 0 0 1 22.588236-22.588235h135.529411a22.588235 22.588235 0 1 1 0 45.176471h-81.01647l96.978823 96.948705a22.588235 22.588235 0 1 1-31.924706 31.924706l-96.978823-96.978823z" fill="#FFFFFF" p-id="24748"></path></svg>