<?xml version="1.0" standalone="no"?><!DOCTYPE svg PUBLIC "-//W3C//DTD SVG 1.1//EN" "http://www.w3.org/Graphics/SVG/1.1/DTD/svg11.dtd"><svg t="1583819348706" class="icon" viewBox="0 0 1024 1024" version="1.1" xmlns="http://www.w3.org/2000/svg" p-id="5862" xmlns:xlink="http://www.w3.org/1999/xlink" width="16" height="16"><defs><style type="text/css"></style></defs><path d="M873.6 220.16L800.64 147.2a94.08 94.08 0 0 0-132.48 0l-37.76 37.76L364.8 448a29.44 29.44 0 0 0-7.68 12.16l-74.88 240a30.08 30.08 0 0 0 7.68 30.72 32.64 32.64 0 0 0 30.72 7.68s178.56-53.76 237.44-74.88a32.64 32.64 0 0 0 12.16-7.68c79.36-72.32 302.72-302.72 302.72-302.72a87.68 87.68 0 0 0 0.64-133.12zM757.76 192L832 263.04a32.64 32.64 0 0 1 0 46.72l-16.64 16.64-120.96-119.68 16.64-14.72a32.64 32.64 0 0 1 46.72 0z m-106.24 59.52L768 369.28 549.12 591.36 429.44 471.68zM400.64 528.64l91.52 91.52-133.76 42.24z" p-id="5863"></path><path d="M823.68 635.52a30.72 30.72 0 0 0-30.72 30.72v177.28H184.32L192 221.44h179.84a30.72 30.72 0 0 0 0-64H192a64 64 0 0 0-64 60.16v623.36a64 64 0 0 0 64 60.16h599.04a64 64 0 0 0 64-60.16V665.6a30.72 30.72 0 0 0-31.36-30.08z" p-id="5864"></path></svg>