<?xml version="1.0" standalone="no"?><!DOCTYPE svg PUBLIC "-//W3C//DTD SVG 1.1//EN" "http://www.w3.org/Graphics/SVG/1.1/DTD/svg11.dtd"><svg t="1584672690719" class="icon" viewBox="0 0 1024 1024" version="1.1" xmlns="http://www.w3.org/2000/svg" p-id="19440" xmlns:xlink="http://www.w3.org/1999/xlink" width="16" height="16"><defs><style type="text/css"></style></defs><path d="M512.361327 509.470713m-508.025406 0a508.025406 508.025406 0 1 0 1016.050812 0 508.025406 508.025406 0 1 0-1016.050812 0Z" p-id="19441"></path><path d="M753.727594 227.63585H653.278758c-5.058574 0-10.117149 2.16796-14.45307 5.781228-3.613267 3.613267-5.781228 9.394495-5.781228 14.45307s2.16796 10.117149 5.781228 14.45307c3.613267 3.613267 9.394495 5.781228 14.45307 5.781228h72.265349l-167.65561 166.210303c-7.949188 7.949188-7.949188 20.234298 0 28.183487s20.956951 7.949188 28.183486 0l167.655611-166.210304v72.26535c0 5.058574 2.16796 10.117149 5.781227 14.453069 3.613267 3.613267 9.394495 5.781228 14.45307 5.781228s10.117149-2.16796 14.45307-5.781228c3.613267-3.613267 5.781228-9.394495 5.781228-14.453069V267.381793c0-21.679605-18.066337-39.745942-40.468595-39.745943z m20.234297 402.517996c-5.058574 0-10.117149 2.16796-14.45307 5.781228-3.613267 3.613267-5.781228 9.394495-5.781227 14.45307v72.265349L586.794637 554.997883c-7.949188-7.949188-20.234298-7.949188-28.183487 0s-7.949188 20.956951 0 28.183486l166.932957 166.932957h-72.265349c-5.058574 0-10.117149 2.16796-14.45307 5.781228-3.613267 3.613267-5.781228 9.394495-5.781228 14.45307s2.16796 10.117149 5.781228 14.45307c3.613267 3.613267 9.394495 5.781228 14.45307 5.781228h100.448836c22.402258 0 40.468596-18.066337 40.468595-40.468596V650.388144c0-5.058574-2.16796-10.117149-5.781228-14.45307-4.335921-4.335921-9.394495-5.781228-14.45307-5.781228zM437.205363 554.997883L270.272406 721.93084V650.388144c0-5.058574-2.16796-10.117149-5.781227-14.45307-3.613267-3.613267-9.394495-5.781228-14.45307-5.781228s-10.117149 2.16796-14.45307 5.781228c-3.613267 3.613267-5.781228 9.394495-5.781228 14.45307v100.448836c0 22.402258 18.066337 40.468596 40.468595 40.468595h100.448836c5.058574 0 10.117149-2.16796 14.45307-5.781228 3.613267-3.613267 5.781228-9.394495 5.781228-14.45307s-2.16796-10.117149-5.781228-14.45307c-3.613267-3.613267-9.394495-5.781228-14.45307-5.781227h-72.265349l166.932957-166.932957c7.949188-7.949188 7.949188-20.234298 0-28.183487-7.226535-7.949188-20.234298-7.949188-28.183487-0.722653zM299.178546 267.381793h72.26535c5.058574 0 10.117149-2.16796 14.453069-5.781228 3.613267-3.613267 5.781228-9.394495 5.781228-14.45307s-2.16796-10.117149-5.781228-14.45307c-3.613267-3.613267-9.394495-5.781228-14.453069-5.781228h-101.17149c-22.402258 0-40.468596 18.066337-40.468595 40.468596v101.171489c0 5.058574 2.16796 10.117149 5.781228 14.453069 3.613267 3.613267 9.394495 5.781228 14.45307 5.781228s10.117149-2.16796 14.45307-5.781228c3.613267-3.613267 5.781228-9.394495 5.781227-14.453069V296.287932l166.932957 166.932957c7.949188 7.949188 20.234298 7.949188 28.183487 0s7.949188-20.234298 0-28.183486L299.178546 267.381793z m0 0" fill="#FFFFFF" p-id="19442"></path></svg>