<?xml version="1.0" standalone="no"?><!DOCTYPE svg PUBLIC "-//W3C//DTD SVG 1.1//EN" "http://www.w3.org/Graphics/SVG/1.1/DTD/svg11.dtd"><svg t="1583399702671" class="icon" viewBox="0 0 1024 1024" version="1.1" xmlns="http://www.w3.org/2000/svg" p-id="9951" xmlns:xlink="http://www.w3.org/1999/xlink" width="16" height="16"><defs><style type="text/css"></style></defs><path d="M428.9 857.8c-109.9 0-219.8-41.8-303.4-125.5-167.3-167.3-167.3-439.5 0-606.8s439.5-167.3 606.8 0 167.3 439.5 0 606.8C648.7 816 538.8 857.8 428.9 857.8z m0-791.8c-93 0-186 35.4-256.7 106.2-141.6 141.6-141.6 371.9 0 513.5s371.9 141.6 513.5 0 141.6-371.9 0-513.5C614.9 101.4 521.9 66 428.9 66z" p-id="9952"></path><path d="M991 1024c-8.4 0-16.9-3.2-23.3-9.7L687.6 734.2c-12.9-12.9-12.9-33.8 0-46.7s33.8-12.9 46.7 0l280.1 280.1c12.9 12.9 12.9 33.8 0 46.7-6.5 6.5-15 9.7-23.4 9.7z" p-id="9953"></path></svg>